# Blender 5.2.1 LTS
# www.blender.org
mtllib knight_tpose.mtl
o KnightMesh
v -1.080000 1.230000 0.070000
v -0.980000 1.225000 0.080000
v -1.080000 1.370000 0.070000
v -0.030000 1.450000 0.225000
v -1.080000 1.230000 -0.070000
v -0.980000 1.375000 0.080000
v -1.080000 1.370000 -0.070000
v -0.720000 1.215000 0.090000
v -0.720000 1.385000 0.090000
v -0.980000 1.225000 -0.080000
v -0.980000 1.375000 -0.080000
v -0.420000 1.180000 0.150000
v -0.420000 1.420000 0.150000
v -0.720000 1.215000 -0.090000
v -0.720000 1.385000 -0.090000
v 0.260000 1.420000 0.150000
v -0.215000 1.440000 0.210000
v -0.420000 1.180000 -0.150000
v -0.420000 1.420000 -0.150000
v -0.030000 1.670000 0.225000
v 1.080000 1.230000 0.070000
v -0.260000 1.420000 0.150000
v 0.165000 1.440000 0.210000
v 0.980000 1.225000 0.080000
v 1.080000 1.370000 0.070000
v -0.260000 1.420000 -0.150000
v 0.980000 1.375000 0.080000
v 1.080000 1.230000 -0.070000
v 0.720000 1.215000 0.090000
v 1.080000 1.370000 -0.070000
v 0.980000 1.225000 -0.080000
v 0.720000 1.385000 0.090000
v 0.980000 1.375000 -0.080000
v 0.260000 1.420000 -0.150000
v 0.420000 1.180000 0.150000
v 0.720000 1.215000 -0.090000
v 0.720000 1.385000 -0.090000
v -0.210000 1.420000 -0.010000
v 0.420000 1.420000 0.150000
v -0.215000 1.720000 0.210000
v 0.420000 1.180000 -0.150000
v 0.030000 1.450000 0.225000
v 0.420000 1.420000 -0.150000
v -0.215000 1.440000 -0.210000
v 0.030000 1.670000 0.225000
v -0.209769 1.690037 0.210000
v -0.215000 1.720000 -0.210000
v 0.165000 1.720000 0.210000
v -0.210000 1.720000 -0.010000
v -0.165000 1.440000 0.210000
v -0.165000 1.720000 0.210000
v -0.290000 0.950000 0.180000
v 0.165000 1.720000 -0.210000
v -0.210000 1.420000 -0.210000
v -0.165000 1.720000 -0.210000
v 0.215000 1.440000 0.210000
v 0.215000 1.720000 0.210000
v -0.210000 1.830000 0.210000
v 0.215000 1.440000 -0.210000
v -0.180000 1.400000 0.180000
v 0.215000 1.720000 -0.210000
v 0.210000 1.420000 -0.010000
v -0.210000 1.690000 -0.210000
v 0.210000 1.720000 -0.010000
v -0.210000 1.830000 -0.210000
v 0.210000 1.420000 -0.210000
v -0.280000 0.890000 0.170000
v 0.210000 1.690000 0.210000
v -0.290000 1.010000 0.180000
v 0.210000 1.830000 0.210000
v -0.180000 1.400000 -0.180000
v 0.210000 1.690000 -0.210000
v -0.250000 1.030000 0.210000
v 0.210000 1.830000 -0.210000
v -0.290000 0.950000 -0.180000
v 0.180000 1.400000 0.180000
v -0.240000 0.780000 0.150000
v 0.180000 1.400000 -0.180000
v -0.290000 1.010000 -0.180000
v -0.250000 1.330000 0.210000
v -0.280000 1.320000 0.170000
v 0.290000 0.950000 0.180000
v 0.290000 1.010000 0.180000
v -0.225000 0.000000 0.190000
v 0.290000 0.950000 -0.180000
v -0.250000 1.330000 0.090000
v 0.290000 1.010000 -0.180000
v 0.250000 1.030000 0.210000
v 0.030000 0.450000 0.110000
v 0.250000 1.330000 0.210000
v -0.280000 0.890000 -0.170000
v -0.280000 1.320000 -0.170000
v -0.240000 0.780000 -0.150000
v 0.250000 1.330000 0.090000
v 0.280000 0.890000 0.170000
v 0.280000 1.320000 0.170000
v -0.225000 0.100000 0.190000
v 0.280000 0.890000 -0.170000
v 0.280000 1.320000 -0.170000
v -0.230000 0.450000 0.110000
v -0.225000 0.000000 -0.110000
v 0.240000 0.780000 0.150000
v 0.035000 0.000000 0.190000
v 0.240000 0.780000 -0.150000
v -0.225000 0.100000 -0.110000
v -0.035000 0.000000 0.190000
v -0.035000 0.100000 0.190000
v -0.035000 0.000000 -0.110000
v -0.035000 0.100000 -0.110000
v 0.035000 0.100000 0.190000
v -0.230000 0.450000 -0.110000
v -0.030000 0.450000 0.110000
v 0.035000 0.000000 -0.110000
v 0.030000 0.450000 -0.110000
v 0.035000 0.100000 -0.110000
v -0.030000 0.450000 -0.110000
v 0.225000 0.000000 0.190000
v 0.225000 0.100000 0.190000
v 0.230000 0.450000 0.110000
v 0.225000 0.000000 -0.110000
v 0.225000 0.100000 -0.110000
v 0.230000 0.450000 -0.110000
v 0.040000 0.450000 -0.100000
v 0.220000 0.450000 -0.100000
v 0.040000 0.450000 0.100000
v 0.220000 0.450000 0.100000
v 0.040000 0.100000 0.100000
v 0.040000 0.100000 -0.100000
v 0.220000 0.100000 -0.100000
v 0.220000 0.100000 0.100000
v -0.220000 0.450000 -0.100000
v -0.040000 0.450000 -0.100000
v -0.220000 0.450000 0.100000
v -0.040000 0.450000 0.100000
v -0.220000 0.100000 0.100000
v -0.220000 0.100000 -0.100000
v -0.040000 0.100000 -0.100000
v -0.040000 0.100000 0.100000
v 0.030000 0.780000 0.110000
v 0.030000 0.780000 -0.110000
v 0.230000 0.780000 -0.110000
v 0.230000 0.780000 0.110000
v -0.230000 0.780000 0.110000
v -0.230000 0.780000 -0.110000
v -0.030000 0.780000 -0.110000
v -0.030000 0.780000 0.110000
v -0.240000 0.890000 0.150000
v -0.240000 0.890000 -0.150000
v 0.240000 0.890000 -0.150000
v 0.240000 0.890000 0.150000
v -0.250000 1.320000 0.170000
v 0.250000 1.030000 0.170000
v 0.250000 1.320000 0.170000
v -0.250000 1.030000 0.170000
v -0.250000 1.320000 0.090000
v 0.250000 1.320000 0.090000
v -0.280000 0.950000 0.170000
v -0.280000 1.010000 0.170000
v -0.280000 0.950000 -0.170000
v -0.280000 1.010000 -0.170000
v 0.280000 0.950000 -0.170000
v 0.280000 1.010000 -0.170000
v 0.280000 0.950000 0.170000
v 0.280000 1.010000 0.170000
v -0.180000 1.420000 -0.010000
v -0.180000 1.420000 -0.180000
v 0.180000 1.420000 -0.180000
v 0.180000 1.420000 -0.010000
v -0.210000 1.720000 -0.210000
v 0.210000 1.720000 -0.210000
v 0.180000 1.440000 0.180000
v 0.180000 1.440000 -0.010000
v 0.165000 1.440000 0.180000
v 0.165000 1.690000 0.180000
v 0.210000 1.720000 0.210000
v 0.165000 1.690000 0.210000
v 0.170357 1.690000 0.210000
v 0.210000 1.440000 -0.010000
v 0.210000 1.440000 -0.210000
v 0.165000 1.705000 0.210000
v 0.167848 1.704051 0.210000
v -0.180000 1.440000 0.180000
v -0.180000 1.440000 -0.010000
v -0.165000 1.690000 0.180000
v -0.165000 1.440000 0.180000
v -0.210000 1.720000 0.210000
v -0.165000 1.690000 0.210000
v -0.210000 1.440000 -0.010000
v -0.210000 1.440000 -0.210000
v -0.090000 1.320000 0.090000
v 0.090000 1.320000 0.090000
v -0.090000 1.320000 -0.090000
v 0.090000 1.320000 -0.090000
v -0.090000 1.330000 0.090000
v 0.090000 1.330000 0.090000
v -0.090000 1.400000 -0.090000
v 0.090000 1.400000 -0.090000
v 0.090000 1.400000 0.090000
v -0.090000 1.400000 0.090000
v -0.030000 1.670000 0.180000
v 0.030000 1.670000 0.180000
v -0.030000 1.450000 0.180000
v 0.030000 1.450000 0.180000
v 0.280000 1.320000 0.150000
v 0.280000 1.180000 -0.150000
v 0.280000 1.320000 -0.150000
v 0.280000 1.180000 0.150000
v 0.260000 1.320000 0.150000
v 0.260000 1.320000 -0.150000
v 0.420000 1.385000 0.090000
v 0.420000 1.385000 -0.090000
v 0.420000 1.215000 0.090000
v 0.420000 1.215000 -0.090000
v 0.720000 1.225000 -0.080000
v 0.720000 1.375000 -0.080000
v 0.720000 1.225000 0.080000
v 0.720000 1.375000 0.080000
v 0.980000 1.370000 0.070000
v 0.980000 1.370000 -0.070000
v 0.980000 1.230000 0.070000
v 0.980000 1.230000 -0.070000
v -0.280000 1.180000 0.150000
v -0.280000 1.320000 0.150000
v -0.280000 1.320000 -0.150000
v -0.280000 1.180000 -0.150000
v -0.260000 1.320000 0.150000
v -0.260000 1.320000 -0.150000
v -0.420000 1.385000 -0.090000
v -0.420000 1.385000 0.090000
v -0.420000 1.215000 0.090000
v -0.420000 1.215000 -0.090000
v -0.720000 1.225000 0.080000
v -0.720000 1.375000 0.080000
v -0.720000 1.225000 -0.080000
v -0.720000 1.375000 -0.080000
v -0.980000 1.370000 -0.070000
v -0.980000 1.370000 0.070000
v -0.980000 1.230000 0.070000
v -0.980000 1.230000 -0.070000
vn -1.0000 -0.0000 -0.0000
vn -0.0000 -0.0000 -1.0000
vn 1.0000 -0.0000 -0.0000
vn -0.0000 -0.0000 1.0000
vn -0.0000 -1.0000 -0.0000
vn -0.0000 1.0000 -0.0000
vn 0.0001 1.0000 -0.0000
vn -0.0001 1.0000 -0.0000
vn 0.8480 -0.0000 -0.5300
vt 0.375000 0.000000
vt 0.581250 0.250000
vt 0.375000 0.250000
vt 0.581250 0.500000
vt 0.375000 0.500000
vt 0.375000 0.750000
vt 0.581250 0.750000
vt 0.375000 1.000000
vt 0.581250 1.000000
vt 0.362500 0.511364
vt 0.137500 0.738636
vt 0.125000 0.750000
vt 0.125000 0.500000
vt 0.601744 0.000000
vt 0.398256 0.250000
vt 0.398256 0.000000
vt 0.601744 0.250000
vt 0.398256 0.500000
vt 0.601744 0.500000
vt 0.398256 0.750000
vt 0.601744 0.750000
vt 0.398256 1.000000
vt 0.625000 0.000000
vt 0.625000 0.250000
vt 0.625000 0.500000
vt 0.625000 0.750000
vt 0.868421 0.675000
vt 0.875000 0.750000
vt 0.868421 0.508333
vt 0.631579 0.508333
vt 0.137500 0.511364
vt 0.137500 0.738636
vt 0.527778 0.250000
vt 0.527778 0.500000
vt 0.527778 0.750000
vt 0.527778 1.000000
vt 0.369792 0.716667
vt 0.369792 0.533333
vt 0.130208 0.716667
vt 0.265625 0.716667
vt 0.234375 0.716667
vt 0.543605 0.235294
vt 0.444767 0.250000
vt 0.444767 0.000000
vt 0.409884 0.250000
vt 0.409884 0.500000
vt 0.543605 0.735294
vt 0.444767 0.750000
vt 0.444767 0.500000
vt 0.409884 0.750000
vt 0.409884 1.000000
vt 0.456395 0.986607
vt 0.444767 1.000000
vt 0.142857 0.514706
vt 0.357143 0.735294
vt 0.790179 0.558823
vt 0.709821 0.558823
vt 0.866071 0.514706
vt 0.616667 0.083333
vt 0.616667 0.250000
vt 0.616667 0.500000
vt 0.625000 0.420000
vt 0.616667 0.330000
vt 0.616667 0.666667
vt 0.375000 0.666667
vt 0.705000 0.500000
vt 0.129310 0.743056
vt 0.370690 0.506944
vt 0.629310 0.743056
vt 0.870690 0.506944
vt 0.875000 0.500000
vt 0.388158 0.131944
vt 0.401316 0.000000
vt 0.388158 0.500000
vt 0.401316 0.750000
vt 0.388158 0.618056
vt 0.401316 0.760417
vt 0.407895 0.895833
vt 0.552632 0.854167
vt 0.565789 0.760417
vt 0.565789 0.989583
vt 0.187500 0.562500
vt 0.312500 0.687500
vt 0.428572 0.250000
vt 0.428572 0.130952
vt 0.428572 0.473214
vt 0.428572 0.276786
vt 0.428572 0.619048
vt 0.428572 0.973214
vt 0.428571 0.776786
vt 0.625000 1.000000
vt 0.375000 0.999787
vt 0.428572 1.000000
vt 0.375000 0.776786
vt 0.400090 0.775090
vt 0.401786 0.776786
vt 0.348214 0.750000
vt 0.151786 0.732143
vt 0.348214 0.732143
vt 0.391667 0.000000
vt 0.391667 0.250000
vt 0.625000 0.250000
vt 0.600000 0.500000
vt 0.391667 0.500000
vt 0.375000 0.767857
vt 0.391667 0.750000
vt 0.391667 0.767857
vt 0.391667 0.982143
vt 0.391667 1.000000
vt 0.142857 0.537500
vt 0.848214 0.500000
vt 0.598214 0.000000
vt 0.375000 0.017857
vt 0.598214 0.475000
vt 0.375000 0.475000
vt 0.598214 0.775000
vt 0.350000 0.619048
vt 0.200000 0.732143
vt 0.650000 0.619048
vt 0.650000 0.500000
vt 0.598214 0.275000
vt 0.625000 0.275000
vt 0.598214 0.732143
vt 0.598214 0.750000
vt 0.598214 0.975000
vt 0.300000 0.732143
vt 0.150000 0.619048
vt 0.850000 0.619048
vt 0.850000 0.750000
vt 0.410714 0.250000
vt 0.428571 0.000000
vt 0.553572 0.000000
vt 0.553572 0.500000
vt 0.410714 0.500000
vt 0.428571 0.750000
vt 0.553572 0.750000
vt 0.428571 1.000000
vt 0.553572 1.000000
vt 0.375000 0.225000
vt 0.625000 0.525000
vt 0.375000 0.525000
vt 0.875000 0.525000
vt 0.520833 0.000000
vt 0.520833 0.281250
vt 0.588542 0.550000
vt 0.411458 0.550000
vt 0.411458 0.700000
vt 0.520833 0.968750
vt 0.156250 0.500000
vt 0.375000 0.291667
vt 0.625000 0.291667
vt 0.389706 0.513889
vt 0.610294 0.736111
vt 0.625000 0.958333
vt 0.375000 0.958333
vt 0.166667 0.500000
vt 0.833333 0.750000
vt 0.375000 0.283333
vt 0.625000 0.283333
vt 0.616667 0.515625
vt 0.383333 0.515625
vt 0.383333 0.734375
vt 0.625000 0.966667
vt 0.375000 0.966667
vt 0.158333 0.500000
vt 0.841667 0.500000
vt 0.841667 0.750000
vt 0.375000 0.291667
vt 0.625000 0.291667
vt 0.625000 0.958333
vt 0.375000 0.958333
vt 0.166667 0.500000
vt 0.833333 0.750000
vt 0.588542 0.050000
vt 0.411458 0.200000
vt 0.520833 0.468750
vt 0.520833 0.750000
vt 0.520833 0.500000
vt 0.520833 0.781250
vt 0.343750 0.500000
vt 0.343750 0.750000
vt 0.610294 0.236111
vt 0.389706 0.013889
vt 0.375000 0.458333
vt 0.625000 0.791667
vt 0.333333 0.500000
vt 0.333333 0.750000
vt 0.666667 0.750000
vt 0.666667 0.500000
vt 0.616667 0.015625
vt 0.383333 0.234375
vt 0.375000 0.466667
vt 0.625000 0.783333
vt 0.341667 0.750000
vt 0.658333 0.750000
vt 0.658333 0.500000
vt 0.375000 0.458333
vt 0.625000 0.791667
vt 0.333333 0.500000
vt 0.333333 0.750000
vt 0.666667 0.750000
vt 0.666667 0.500000
vt 0.581250 0.000000
vt 0.362500 0.738636
vt 0.137500 0.511364
vt 0.601744 1.000000
vt 0.631579 0.675000
vt 0.362500 0.738636
vt 0.527778 0.000000
vt 0.130208 0.533333
vt 0.234375 0.533333
vt 0.265625 0.533333
vt 0.625000 0.235294
vt 0.625000 0.014706
vt 0.543605 0.014706
vt 0.409884 0.000000
vt 0.625000 0.735294
vt 0.625000 0.514706
vt 0.543605 0.514706
vt 0.625000 0.763393
vt 0.456395 0.763393
vt 0.625000 0.986607
vt 0.142857 0.735294
vt 0.357143 0.514706
vt 0.866071 0.735294
vt 0.875000 0.735294
vt 0.861607 0.691176
vt 0.790179 0.691176
vt 0.709821 0.691176
vt 0.638393 0.691176
vt 0.638393 0.750000
vt 0.633928 0.735294
vt 0.633929 0.514706
vt 0.875000 0.514706
vt 0.861607 0.750000
vt 0.375000 0.083333
vt 0.616667 0.420000
vt 0.625000 0.330000
vt 0.125000 0.666667
vt 0.795000 0.500000
vt 0.129310 0.506944
vt 0.370690 0.743056
vt 0.629310 0.506944
vt 0.870690 0.743056
vt 0.388158 0.250000
vt 0.401316 0.131944
vt 0.401316 0.618056
vt 0.401316 0.989583
vt 0.401316 1.000000
vt 0.407895 0.854167
vt 0.552632 0.895833
vt 0.187500 0.687500
vt 0.312500 0.562500
vt 0.428572 0.000000
vt 0.428572 0.500000
vt 0.428572 0.750000
vt 0.375000 0.973214
vt 0.375000 0.773597
vt 0.151786 0.750000
vt 0.600000 0.250000
vt 0.375000 0.982143
vt 0.142857 0.750000
vt 0.357143 0.750000
vt 0.357143 0.537500
vt 0.651786 0.500000
vt 0.598214 0.017857
vt 0.625000 0.475000
vt 0.598214 0.973214
vt 0.598214 1.000000
vt 0.625000 0.775000
vt 0.350000 0.500000
vt 0.125000 0.732143
vt 0.200000 0.619048
vt 0.650000 0.750000
vt 0.375000 0.275000
vt 0.375000 0.732143
vt 0.625000 0.975000
vt 0.150000 0.500000
vt 0.300000 0.619048
vt 0.850000 0.500000
vt 0.553572 0.250000
vt 0.410714 0.000000
vt 0.410714 0.750000
vt 0.625000 0.225000
vt 0.125000 0.525000
vt 0.520833 0.250000
vt 0.375000 0.281250
vt 0.588542 0.700000
vt 0.375000 0.968750
vt 0.520833 1.000000
vt 0.156250 0.750000
vt 0.389706 0.736111
vt 0.610294 0.513889
vt 0.166667 0.750000
vt 0.833333 0.500000
vt 0.616667 0.734375
vt 0.158333 0.750000
vt 0.166667 0.750000
vt 0.833333 0.500000
vt 0.411458 0.050000
vt 0.588542 0.200000
vt 0.375000 0.468750
vt 0.375000 0.781250
vt 0.389706 0.236111
vt 0.610294 0.013889
vt 0.625000 0.458333
vt 0.375000 0.791667
vt 0.383333 0.015625
vt 0.616667 0.234375
vt 0.625000 0.466667
vt 0.375000 0.783333
vt 0.341667 0.500000
vt 0.625000 0.458333
vt 0.375000 0.791667
s 0
usemtl Leather
f 89/1/1 140/2/1 114/3/1
f 114/3/2 141/4/2 122/5/2
f 119/6/3 141/4/3 142/7/3
f 89/8/4 142/7/4 139/9/4
f 119/6/5 124/10/5 122/5/5
f 125/11/5 89/12/5 114/13/5
f 125/14/1 128/15/1 127/16/1
f 123/17/2 129/18/2 128/15/2
f 124/19/3 130/20/3 129/18/3
f 126/21/4 127/22/4 130/20/4
f 110/23/1 113/3/1 103/1/1
f 115/24/2 120/5/2 113/3/2
f 121/25/3 117/6/3 120/5/3
f 118/26/4 103/8/4 117/6/4
f 120/5/5 103/12/5 113/13/5
f 127/27/6 110/28/6 118/26/6
f 121/25/6 128/29/6 129/30/6
f 100/1/1 144/2/1 111/3/1
f 111/3/2 145/4/2 116/5/2
f 112/6/3 145/4/3 146/7/3
f 100/8/4 146/7/4 143/9/4
f 132/10/5 116/5/5 112/6/5
f 100/12/5 131/31/5 133/32/5
f 77/1/1 148/33/1 93/3/1
f 93/3/2 149/34/2 104/5/2
f 102/6/3 149/34/3 150/35/3
f 77/8/4 150/35/4 147/36/4
f 104/5/5 142/37/5 141/38/5
f 93/13/5 143/39/5 77/12/5
f 139/40/5 77/12/5 146/41/5
f 225/42/1 160/43/1 158/44/1
f 67/1/1 159/45/1 91/3/1
f 99/25/2 160/43/2 92/24/2
f 91/3/2 161/46/2 98/5/2
f 207/47/3 164/48/3 162/49/3
f 95/6/3 161/46/3 163/50/3
f 67/8/4 163/50/4 157/51/4
f 164/48/4 154/52/4 158/53/4
f 148/54/5 91/13/5 98/5/5
f 67/12/5 150/55/5 95/6/5
f 192/56/6 193/57/6 227/58/6
f 165/72/1 71/3/1 182/73/1
f 71/3/2 167/74/2 78/5/2
f 171/75/3 78/5/3 168/76/3
f 60/8/4 173/77/4 202/78/4
f 201/79/4 174/80/4 184/81/4
f 196/82/5 71/13/5 78/5/5
f 60/12/5 198/83/5 76/6/5
f 33/25/2 214/158/2 215/159/2
f 219/160/3 33/25/3 27/26/3
f 24/6/3 221/161/3 220/162/3
f 24/6/4 217/163/4 216/164/4
f 24/6/5 214/165/5 31/5/5
f 27/26/6 215/166/6 217/167/6
f 6/23/1 11/24/1 237/190/1
f 2/1/1 239/191/1 10/3/1
f 11/24/2 234/192/2 10/3/2
f 2/8/4 233/193/4 6/91/4
f 10/13/5 232/194/5 2/12/5
f 11/71/6 233/195/6 235/196/6
f 89/1/1 139/203/1 140/2/1
f 114/3/2 140/2/2 141/4/2
f 119/6/3 122/5/3 141/4/3
f 89/8/4 119/6/4 142/7/4
f 119/6/5 126/204/5 124/10/5
f 125/11/5 126/204/5 119/6/5
f 114/13/5 122/5/5 124/10/5
f 114/13/5 124/10/5 123/205/5
f 125/11/5 119/6/5 89/12/5
f 114/13/5 123/205/5 125/11/5
f 125/14/1 123/17/1 128/15/1
f 123/17/2 124/19/2 129/18/2
f 124/19/3 126/21/3 130/20/3
f 126/21/4 125/206/4 127/22/4
f 110/23/1 115/24/1 113/3/1
f 115/24/2 121/25/2 120/5/2
f 121/25/3 118/26/3 117/6/3
f 118/26/4 110/91/4 103/8/4
f 120/5/5 117/6/5 103/12/5
f 127/27/6 128/29/6 115/71/6
f 118/26/6 121/25/6 129/30/6
f 118/26/6 129/30/6 130/207/6
f 127/27/6 115/71/6 110/28/6
f 118/26/6 130/207/6 127/27/6
f 121/25/6 115/71/6 128/29/6
f 100/1/1 143/203/1 144/2/1
f 111/3/2 144/2/2 145/4/2
f 112/6/3 116/5/3 145/4/3
f 100/8/4 112/6/4 146/7/4
f 132/10/5 131/31/5 111/13/5
f 112/6/5 100/12/5 133/32/5
f 112/6/5 133/32/5 134/208/5
f 132/10/5 111/13/5 116/5/5
f 112/6/5 134/208/5 132/10/5
f 100/12/5 111/13/5 131/31/5
f 77/1/1 147/209/1 148/33/1
f 93/3/2 148/33/2 149/34/2
f 102/6/3 104/5/3 149/34/3
f 77/8/4 102/6/4 150/35/4
f 104/5/5 102/6/5 142/37/5
f 93/13/5 144/210/5 143/39/5
f 145/211/5 144/210/5 93/13/5
f 93/13/5 104/5/5 141/38/5
f 93/13/5 141/38/5 140/212/5
f 145/211/5 93/13/5 140/212/5
f 139/40/5 142/37/5 102/6/5
f 145/211/5 140/212/5 139/40/5
f 77/12/5 143/39/5 146/41/5
f 146/41/5 145/211/5 139/40/5
f 139/40/5 102/6/5 77/12/5
f 225/42/1 224/213/1 92/24/1
f 158/44/1 81/23/1 223/214/1
f 158/44/1 223/214/1 222/215/1
f 225/42/1 92/24/1 160/43/1
f 158/44/1 222/215/1 225/42/1
f 67/1/1 157/216/1 159/45/1
f 99/25/2 162/49/2 160/43/2
f 91/3/2 159/45/2 161/46/2
f 207/47/3 204/217/3 96/26/3
f 162/49/3 99/25/3 206/218/3
f 162/49/3 206/218/3 205/219/3
f 207/47/3 96/26/3 164/48/3
f 162/49/3 205/219/3 207/47/3
f 95/6/3 98/5/3 161/46/3
f 67/8/4 95/6/4 163/50/4
f 164/48/4 96/26/4 153/220/4
f 164/48/4 153/220/4 152/221/4
f 151/222/4 81/91/4 158/53/4
f 164/48/4 152/221/4 154/52/4
f 154/52/4 151/222/4 158/53/4
f 148/54/5 147/223/5 67/12/5
f 98/5/5 95/6/5 150/55/5
f 98/5/5 150/55/5 149/224/5
f 148/54/5 67/12/5 91/13/5
f 98/5/5 149/224/5 148/54/5
f 67/12/5 147/223/5 150/55/5
f 226/225/6 223/226/6 81/28/6
f 155/227/6 190/228/6 192/56/6
f 193/57/6 191/229/6 156/230/6
f 153/231/6 96/26/6 204/217/6
f 153/231/6 204/217/6 208/232/6
f 156/230/6 153/231/6 208/232/6
f 209/233/6 206/218/6 99/25/6
f 156/230/6 208/232/6 209/233/6
f 193/57/6 156/230/6 209/233/6
f 209/233/6 99/25/6 92/71/6
f 92/71/6 224/234/6 227/58/6
f 226/225/6 81/28/6 151/235/6
f 209/233/6 92/71/6 227/58/6
f 227/58/6 226/225/6 151/235/6
f 227/58/8 151/235/8 155/227/8
f 193/57/6 209/233/6 227/58/6
f 227/58/6 155/227/6 192/56/6
f 165/72/1 166/245/1 71/3/1
f 71/3/1 60/1/1 182/73/1
f 182/73/1 183/246/1 165/72/1
f 71/3/2 166/245/2 167/74/2
f 168/76/3 172/247/3 171/75/3
f 171/75/3 76/6/3 78/5/3
f 78/5/3 167/74/3 168/76/3
f 185/248/4 182/249/4 60/8/4
f 60/8/4 76/6/4 171/75/4
f 173/77/4 203/250/4 202/78/4
f 60/8/4 171/75/4 173/77/4
f 202/78/4 185/248/4 60/8/4
f 201/79/4 203/250/4 173/77/4
f 184/81/4 185/248/4 202/78/4
f 184/81/4 202/78/4 200/251/4
f 201/79/4 173/77/4 174/80/4
f 184/81/4 200/251/4 201/79/4
f 196/82/5 199/252/5 60/12/5
f 78/5/5 76/6/5 198/83/5
f 78/5/5 198/83/5 197/253/5
f 196/82/5 60/12/5 71/13/5
f 78/5/5 197/253/5 196/82/5
f 60/12/5 199/252/5 198/83/5
f 33/25/2 31/5/2 214/158/2
f 219/160/3 221/161/3 31/5/3
f 27/26/3 24/6/3 220/162/3
f 27/26/3 220/162/3 218/296/3
f 219/160/3 31/5/3 33/25/3
f 27/26/3 218/296/3 219/160/3
f 24/6/3 31/5/3 221/161/3
f 24/6/4 27/26/4 217/163/4
f 24/6/5 216/297/5 214/165/5
f 27/26/6 33/25/6 215/166/6
f 238/308/1 2/1/1 6/23/1
f 11/24/1 10/3/1 239/191/1
f 11/24/1 239/191/1 236/309/1
f 237/190/1 238/308/1 6/23/1
f 11/24/1 236/309/1 237/190/1
f 2/1/1 238/308/1 239/191/1
f 11/24/2 235/310/2 234/192/2
f 2/8/4 232/311/4 233/193/4
f 10/13/5 234/312/5 232/194/5
f 11/71/6 6/28/6 233/195/6
usemtl Armor
f 133/14/1 136/15/1 135/16/1
f 131/17/2 137/18/2 136/15/2
f 132/19/3 138/20/3 137/18/3
f 134/21/4 135/22/4 138/20/4
f 151/59/1 80/23/1 155/60/1
f 156/61/2 195/62/2 94/25/2
f 86/24/2 190/63/2 155/60/2
f 153/64/3 90/26/3 152/65/3
f 90/26/4 73/8/4 88/6/4
f 73/12/5 152/65/5 88/6/5
f 80/28/6 94/25/6 195/66/6
f 169/84/1 49/85/1 58/23/1
f 53/86/2 55/87/2 65/24/2
f 64/88/3 74/25/3 70/26/3
f 51/89/4 48/90/4 58/91/4
f 46/92/4 51/89/4 186/93/4
f 176/94/4 181/95/4 180/96/4
f 181/95/4 68/6/4 48/90/4
f 176/97/5 184/98/5 174/99/5
f 65/71/6 70/26/6 74/25/6
f 54/3/1 188/100/1 189/101/1
f 169/102/2 66/5/2 54/3/2
f 66/5/3 72/103/3 179/104/3
f 168/105/4 178/106/4 172/107/4
f 38/8/4 183/108/4 188/109/4
f 166/110/5 54/13/5 66/5/5
f 55/111/6 170/25/6 169/71/6
f 176/112/1 173/113/1 23/1/1
f 72/114/2 61/25/2 179/115/2
f 61/25/3 56/6/3 59/5/3
f 23/8/4 56/6/4 68/116/4
f 178/117/5 56/6/5 171/118/5
f 64/119/6 57/26/6 170/120/6
f 40/23/1 44/3/1 17/1/1
f 63/121/2 44/3/2 169/122/2
f 50/6/3 184/123/3 187/124/3
f 46/125/4 17/8/4 187/124/4
f 182/126/5 17/12/5 188/127/5
f 49/128/7 47/71/7 186/129/7
f 20/23/1 202/139/1 4/1/1
f 42/6/3 201/140/3 45/26/3
f 45/26/4 4/8/4 42/6/4
f 4/12/5 203/141/5 42/6/5
f 20/28/6 201/140/6 200/142/6
f 34/24/1 208/143/1 16/23/1
f 206/144/2 34/24/2 41/5/2
f 211/145/3 43/25/3 39/26/3
f 35/6/3 213/146/3 212/147/3
f 204/148/4 35/6/4 16/91/4
f 35/6/5 205/149/5 41/5/5
f 34/71/6 39/26/6 43/25/6
f 229/174/1 13/23/1 19/24/1
f 12/1/1 231/175/1 18/3/1
f 224/176/2 18/3/2 26/25/2
f 26/25/3 226/177/3 227/178/3
f 223/179/4 22/26/4 12/8/4
f 12/12/5 225/180/5 222/181/5
f 19/71/6 22/26/6 26/25/6
f 133/14/1 131/17/1 136/15/1
f 131/17/2 132/19/2 137/18/2
f 132/19/3 134/21/3 138/20/3
f 134/21/4 133/206/4 135/22/4
f 151/59/1 154/236/1 73/1/1
f 80/23/1 86/24/1 155/60/1
f 151/59/1 73/1/1 80/23/1
f 156/61/2 191/237/2 195/62/2
f 86/24/2 194/238/2 190/63/2
f 153/64/3 156/61/3 94/25/3
f 90/26/3 88/6/3 152/65/3
f 153/64/3 94/25/3 90/26/3
f 90/26/4 80/91/4 73/8/4
f 73/12/5 154/239/5 152/65/5
f 194/240/6 86/71/6 80/28/6
f 80/28/6 90/26/6 94/25/6
f 195/66/6 194/240/6 80/28/6
f 58/23/1 65/24/1 169/84/1
f 49/85/1 186/254/1 58/23/1
f 65/24/2 74/25/2 170/255/2
f 65/24/2 170/255/2 53/86/2
f 55/87/2 169/84/2 65/24/2
f 70/26/3 175/256/3 64/88/3
f 64/88/3 170/255/3 74/25/3
f 51/89/4 187/257/4 176/94/4
f 51/89/4 176/94/4 180/96/4
f 58/91/4 186/93/4 51/89/4
f 175/256/4 70/26/4 58/91/4
f 51/89/4 180/96/4 48/90/4
f 48/90/4 175/256/4 58/91/4
f 46/92/4 187/257/4 51/89/4
f 176/94/4 177/258/4 181/95/4
f 181/95/4 177/258/4 68/6/4
f 68/6/4 175/256/4 48/90/4
f 48/90/4 180/96/4 181/95/4
f 176/97/5 187/259/5 184/98/5
f 65/71/6 58/28/6 70/26/6
f 63/260/1 169/102/1 54/3/1
f 54/3/1 38/1/1 188/100/1
f 189/101/1 63/260/1 54/3/1
f 169/102/2 170/25/2 66/5/2
f 179/104/3 178/106/3 62/6/3
f 66/5/9 170/25/9 72/103/9
f 179/104/3 62/6/3 66/5/3
f 168/105/4 62/6/4 178/106/4
f 38/8/4 165/261/4 183/108/4
f 166/110/5 165/262/5 38/12/5
f 66/5/5 62/6/5 168/263/5
f 66/5/5 168/263/5 167/264/5
f 166/110/5 38/12/5 54/13/5
f 66/5/5 167/264/5 166/110/5
f 55/111/6 53/265/6 170/25/6
f 176/112/1 174/266/1 173/113/1
f 72/114/2 170/267/2 61/25/2
f 61/25/2 59/5/2 179/115/2
f 61/25/3 57/26/3 56/6/3
f 177/268/4 176/269/4 23/8/4
f 56/6/4 57/26/4 175/270/4
f 68/116/4 177/268/4 23/8/4
f 56/6/4 175/270/4 68/116/4
f 178/117/5 179/271/5 59/5/5
f 56/6/5 23/12/5 173/272/5
f 171/118/5 172/273/5 178/117/5
f 56/6/5 173/272/5 171/118/5
f 178/117/5 59/5/5 56/6/5
f 64/119/6 175/274/6 57/26/6
f 57/26/6 61/25/6 170/120/6
f 40/23/1 47/24/1 44/3/1
f 63/121/2 189/275/2 44/3/2
f 44/3/2 47/24/2 169/122/2
f 50/6/3 185/276/3 184/123/3
f 46/125/4 186/277/4 40/91/4
f 17/8/4 50/6/4 187/124/4
f 46/125/4 40/91/4 17/8/4
f 182/126/5 185/276/5 50/6/5
f 17/12/5 44/13/5 189/278/5
f 188/127/5 183/279/5 182/126/5
f 17/12/5 189/278/5 188/127/5
f 182/126/5 50/6/5 17/12/5
f 49/128/8 169/280/8 47/71/8
f 47/71/6 40/28/6 186/129/6
f 20/23/1 200/284/1 202/139/1
f 42/6/3 203/141/3 201/140/3
f 45/26/4 20/91/4 4/8/4
f 4/12/5 202/285/5 203/141/5
f 20/28/6 45/26/6 201/140/6
f 34/24/1 209/286/1 208/143/1
f 206/144/2 209/286/2 34/24/2
f 34/24/2 43/25/2 41/5/2
f 41/5/2 205/287/2 206/144/2
f 211/145/3 213/146/3 41/5/3
f 39/26/3 35/6/3 212/147/3
f 39/26/3 212/147/3 210/288/3
f 211/145/3 41/5/3 43/25/3
f 39/26/3 210/288/3 211/145/3
f 35/6/3 41/5/3 213/146/3
f 204/148/4 207/289/4 35/6/4
f 35/6/4 39/26/4 16/91/4
f 16/91/4 208/290/4 204/148/4
f 35/6/5 207/291/5 205/149/5
f 34/71/6 16/28/6 39/26/6
f 229/174/1 230/300/1 12/1/1
f 19/24/1 18/3/1 231/175/1
f 19/24/1 231/175/1 228/301/1
f 229/174/1 12/1/1 13/23/1
f 19/24/1 228/301/1 229/174/1
f 12/1/1 230/300/1 231/175/1
f 224/176/2 225/302/2 18/3/2
f 18/3/2 19/24/2 26/25/2
f 26/25/2 227/178/2 224/176/2
f 26/25/3 22/26/3 226/177/3
f 223/179/4 226/177/4 22/26/4
f 22/26/4 13/91/4 12/8/4
f 12/8/4 222/303/4 223/179/4
f 12/12/5 18/13/5 225/180/5
f 19/71/6 13/28/6 22/26/6
usemtl Dark
f 97/23/1 101/3/1 84/1/1
f 105/24/2 108/5/2 101/3/2
f 109/25/3 106/6/3 108/5/3
f 107/26/4 84/8/4 106/6/4
f 108/5/5 84/12/5 101/13/5
f 135/27/6 97/28/6 107/26/6
f 109/25/6 136/29/6 137/30/6
f 69/23/1 75/3/1 52/1/1
f 79/24/2 85/5/2 75/3/2
f 87/25/3 82/6/3 85/5/3
f 83/26/4 52/8/4 82/6/4
f 75/13/5 157/67/5 52/12/5
f 161/68/5 85/5/5 82/6/5
f 87/25/6 164/69/6 83/26/6
f 160/70/6 79/71/6 69/28/6
f 97/23/1 105/24/1 101/3/1
f 105/24/2 109/25/2 108/5/2
f 109/25/3 107/26/3 106/6/3
f 107/26/4 97/91/4 84/8/4
f 108/5/5 106/6/5 84/12/5
f 135/27/6 136/29/6 105/71/6
f 107/26/6 109/25/6 137/30/6
f 107/26/6 137/30/6 138/207/6
f 135/27/6 105/71/6 97/28/6
f 107/26/6 138/207/6 135/27/6
f 109/25/6 105/71/6 136/29/6
f 69/23/1 79/24/1 75/3/1
f 79/24/2 87/25/2 85/5/2
f 87/25/3 83/26/3 82/6/3
f 83/26/4 69/91/4 52/8/4
f 75/13/5 159/241/5 157/67/5
f 161/68/5 159/241/5 75/13/5
f 82/6/5 52/12/5 157/67/5
f 82/6/5 157/67/5 163/242/5
f 161/68/5 75/13/5 85/5/5
f 82/6/5 163/242/5 161/68/5
f 87/25/6 162/243/6 164/69/6
f 160/70/6 162/243/6 87/25/6
f 69/28/6 83/26/6 164/69/6
f 69/28/6 164/69/6 158/244/6
f 160/70/6 87/25/6 79/71/6
f 69/28/6 158/244/6 160/70/6
usemtl Tunic
f 37/25/2 213/150/2 211/151/2
f 214/152/3 36/5/3 37/25/3
f 29/6/3 217/153/3 32/26/3
f 29/6/4 210/154/4 212/155/4
f 29/6/5 213/156/5 36/5/5
f 37/25/6 210/157/6 32/26/6
f 14/3/1 235/182/1 15/24/1
f 8/1/1 9/23/1 232/183/1
f 15/24/2 231/184/2 14/3/2
f 8/8/4 229/185/4 9/91/4
f 8/12/5 231/186/5 230/187/5
f 15/71/6 229/188/6 228/189/6
f 37/25/2 36/5/2 213/150/2
f 214/152/3 216/292/3 29/6/3
f 37/25/3 32/26/3 217/153/3
f 37/25/3 217/153/3 215/293/3
f 214/152/3 29/6/3 36/5/3
f 37/25/3 215/293/3 214/152/3
f 29/6/3 216/292/3 217/153/3
f 29/6/4 32/26/4 210/154/4
f 29/6/5 212/294/5 213/156/5
f 37/25/6 211/295/6 210/157/6
f 14/3/1 234/304/1 235/182/1
f 232/183/1 234/304/1 14/3/1
f 9/23/1 15/24/1 235/182/1
f 9/23/1 235/182/1 233/305/1
f 232/183/1 14/3/1 8/1/1
f 9/23/1 233/305/1 232/183/1
f 15/24/2 228/306/2 231/184/2
f 8/8/4 230/307/4 229/185/4
f 8/12/5 14/13/5 231/186/5
f 15/71/6 9/28/6 229/188/6
usemtl Skin
f 192/130/1 194/131/1 199/132/1
f 192/130/2 197/133/2 193/134/2
f 195/135/3 193/134/3 198/136/3
f 194/137/4 198/136/4 199/138/4
f 30/25/2 221/168/2 219/169/2
f 30/25/3 21/6/3 28/5/3
f 21/6/4 218/170/4 220/171/4
f 21/6/5 221/172/5 28/5/5
f 30/25/6 218/173/6 25/26/6
f 3/23/1 5/3/1 1/1/1
f 7/24/2 239/197/2 5/3/2
f 1/8/4 237/198/4 3/91/4
f 1/12/5 239/199/5 238/200/5
f 7/71/6 237/201/6 236/202/6
f 199/132/1 196/281/1 192/130/1
f 192/130/1 190/282/1 194/131/1
f 192/130/2 196/281/2 197/133/2
f 195/135/3 191/283/3 193/134/3
f 193/134/3 197/133/3 198/136/3
f 194/137/4 195/135/4 198/136/4
f 30/25/2 28/5/2 221/168/2
f 30/25/3 25/26/3 21/6/3
f 21/6/4 25/26/4 218/170/4
f 21/6/5 220/298/5 221/172/5
f 30/25/6 219/299/6 218/173/6
f 3/23/1 7/24/1 5/3/1
f 7/24/2 236/313/2 239/197/2
f 1/8/4 238/314/4 237/198/4
f 1/12/5 5/13/5 239/199/5
f 7/71/6 3/28/6 237/201/6
